<svg xmlns="http://www.w3.org/2000/svg" viewBox="0 0 48 48" id="event"><g data-name="03-Event"><rect width="4" height="6" x="17" y="1" fill="none" stroke="#000" stroke-linejoin="round" stroke-width="2" transform="rotate(-180 19 4)"></rect><rect width="4" height="6" x="7" y="1" fill="none" stroke="#000" stroke-linejoin="round" stroke-width="2" transform="rotate(-180 9 4)"></rect><rect width="4" height="6" x="27" y="1" fill="none" stroke="#000" stroke-linejoin="round" stroke-width="2" transform="rotate(-180 29 4)"></rect><rect width="4" height="6" x="37" y="1" fill="none" stroke="#000" stroke-linejoin="round" stroke-width="2" transform="rotate(-180 39 4)"></rect><line x1="47" x2="1" y1="11" y2="11" fill="none" stroke="#000" stroke-linejoin="round" stroke-width="2"></line><line x1="11" x2="17" y1="4" y2="4" fill="none" stroke="#000" stroke-linejoin="round" stroke-width="2"></line><line x1="21" x2="27" y1="4" y2="4" fill="none" stroke="#000" stroke-linejoin="round" stroke-width="2"></line><line x1="31" x2="37" y1="4" y2="4" fill="none" stroke="#000" stroke-linejoin="round" stroke-width="2"></line><path fill="none" stroke="#000" stroke-linejoin="round" stroke-width="2" d="M41,4h6V47H9L1,39V4H7"></path><polygon fill="none" stroke="#000" stroke-linejoin="round" stroke-width="2" points="9 47 1 39 9 39 9 47"></polygon><rect width="6" height="6" x="6" y="16" fill="none" stroke="#000" stroke-linejoin="round" stroke-width="2"></rect><rect width="6" height="6" x="16" y="16" fill="none" stroke="#000" stroke-linejoin="round" stroke-width="2"></rect><rect width="6" height="6" x="26" y="16" fill="none" stroke="#000" stroke-linejoin="round" stroke-width="2"></rect><rect width="6" height="6" x="36" y="16" fill="none" stroke="#000" stroke-linejoin="round" stroke-width="2"></rect><rect width="6" height="6" x="6" y="26" fill="none" stroke="#000" stroke-linejoin="round" stroke-width="2"></rect><rect width="6" height="6" x="16" y="26" fill="none" stroke="#000" stroke-linejoin="round" stroke-width="2"></rect><rect width="6" height="6" x="26" y="26" fill="none" stroke="#000" stroke-linejoin="round" stroke-width="2"></rect><rect width="6" height="6" x="36" y="26" fill="none" stroke="#000" stroke-linejoin="round" stroke-width="2"></rect><rect width="6" height="6" x="16" y="36" fill="none" stroke="#000" stroke-linejoin="round" stroke-width="2"></rect><rect width="6" height="6" x="26" y="36" fill="none" stroke="#000" stroke-linejoin="round" stroke-width="2"></rect><rect width="6" height="6" x="36" y="36" fill="none" stroke="#000" stroke-linejoin="round" stroke-width="2"></rect><line x1="36" x2="42" y1="42" y2="36" fill="none" stroke="#000" stroke-linejoin="round" stroke-width="2"></line><line x1="36" x2="42" y1="32" y2="26" fill="none" stroke="#000" stroke-linejoin="round" stroke-width="2"></line><line x1="36" x2="42" y1="22" y2="16" fill="none" stroke="#000" stroke-linejoin="round" stroke-width="2"></line></g></svg>