<?xml version="1.0" encoding="UTF-8"?>
<!DOCTYPE svg PUBLIC "-//W3C//DTD SVG 1.1//EN" "http://www.w3.org/Graphics/SVG/1.1/DTD/svg11.dtd">
<svg xmlns="http://www.w3.org/2000/svg" version="1.1" width="512px" height="512px" style="shape-rendering:geometricPrecision; text-rendering:geometricPrecision; image-rendering:optimizeQuality; fill-rule:evenodd; clip-rule:evenodd" xmlns:xlink="http://www.w3.org/1999/xlink">
<g><path style="opacity:0.975" fill="#FFFFFF" d="M 169.5,47.5 C 179.36,45.3496 186.527,48.6829 191,57.5C 191.667,74.8333 191.667,92.1667 191,109.5C 186.527,118.482 179.36,121.649 169.5,119C 165,117.167 161.833,114 160,109.5C 159.333,92.1667 159.333,74.8333 160,57.5C 162.022,52.98 165.189,49.6467 169.5,47.5 Z"/></g>
<g><path style="opacity:0.975" fill="#FFFFFF" d="M 329.5,47.5 C 339.36,45.3496 346.527,48.6829 351,57.5C 351.667,74.8333 351.667,92.1667 351,109.5C 346.527,118.482 339.36,121.649 329.5,119C 325,117.167 321.833,114 320,109.5C 319.333,92.1667 319.333,74.8333 320,57.5C 322.022,52.98 325.189,49.6467 329.5,47.5 Z"/></g>
<g><path style="opacity:0.992" fill="#FFFFFF" d="M 107.5,79.5 C 119.5,79.5 131.5,79.5 143.5,79.5C 142.976,91.2802 143.81,102.947 146,114.5C 156.481,134.335 171.981,139.502 192.5,130C 201.625,123.589 206.458,114.755 207,103.5C 207.5,95.5069 207.666,87.5069 207.5,79.5C 239.5,79.5 271.5,79.5 303.5,79.5C 302.976,91.2802 303.81,102.947 306,114.5C 316.481,134.335 331.981,139.502 352.5,130C 361.625,123.589 366.458,114.755 367,103.5C 367.5,95.5069 367.666,87.5069 367.5,79.5C 381.218,79.0939 394.885,79.5939 408.5,81C 438.403,89.5692 456.569,109.069 463,139.5C 463.5,151.495 463.667,163.495 463.5,175.5C 324.833,175.5 186.167,175.5 47.5,175.5C 47.3335,163.495 47.5001,151.495 48,139.5C 55.3473,106.986 75.1807,86.9864 107.5,79.5 Z"/></g>
<g><path style="opacity:0.995" fill="#FFFFFF" d="M 47.5,191.5 C 186.167,191.5 324.833,191.5 463.5,191.5C 463.667,251.501 463.5,311.501 463,371.5C 455.833,404 436,423.833 403.5,431C 304.833,431.667 206.167,431.667 107.5,431C 75,423.833 55.1667,404 48,371.5C 47.5,311.501 47.3333,251.501 47.5,191.5 Z M 250.5,240.5 C 257.555,239.111 263.388,241.111 268,246.5C 272.57,258.21 276.736,270.043 280.5,282C 292.833,282.333 305.167,282.667 317.5,283C 329.304,288.08 332.138,296.247 326,307.5C 316.617,315.217 306.951,322.551 297,329.5C 296.333,330.833 296.333,332.167 297,333.5C 300.805,344.413 304.305,355.413 307.5,366.5C 304.112,380.861 295.779,385.027 282.5,379C 273.5,372.5 264.5,366 255.5,359.5C 246.5,366 237.5,372.5 228.5,379C 215.521,385.012 207.187,381.012 203.5,367C 206.596,355.711 210.096,344.545 214,333.5C 214.667,332.167 214.667,330.833 214,329.5C 204.049,322.551 194.383,315.217 185,307.5C 178.862,296.247 181.696,288.08 193.5,283C 205.833,282.667 218.167,282.333 230.5,282C 234.264,270.043 238.43,258.21 243,246.5C 245.114,243.879 247.614,241.879 250.5,240.5 Z"/></g>
</svg>
