<svg width="39" height="38" viewBox="0 0 39 38" fill="none" xmlns="http://www.w3.org/2000/svg">
<path fill-rule="evenodd" clip-rule="evenodd" d="M0.666992 30C0.666992 34.4183 4.24871 38 8.66699 38H30.667C35.0853 38 38.667 34.4183 38.667 30V8C38.667 3.58172 35.0853 0 30.667 0H8.66699C4.24871 0 0.666992 3.58172 0.666992 8V30Z" fill="#15171F"/>
<path fill-rule="evenodd" clip-rule="evenodd" d="M22.2414 8.50022H22.2384H22.2304C19.3824 8.50022 17.4294 10.2312 17.4294 13.4352V16.1902H14.2144V19.9362H17.4294V29.5002H21.2934V19.9362H24.5094L25.0044 16.1902H21.3044V13.8062C21.3044 12.7292 21.6044 11.9882 23.1554 11.9882H25.1204V8.64822C24.1634 8.54622 23.2024 8.49622 22.2414 8.50022Z" fill="white"/>
</svg>
