<?xml version="1.0" encoding="utf-8"?>
<svg viewBox="0 0 500 500" xmlns="http://www.w3.org/2000/svg">
  <defs>
    <linearGradient id="paint0_linear_1351_12277" x1="950.16" y1="337.896" x2="959.665" y2="655.206" gradientUnits="userSpaceOnUse">
      <stop stop-color="#C4C4C4"/>
      <stop offset="0.1927" stop-color="#FDA3FF"/>
      <stop offset="0.4427" stop-color="#7DFF9A"/>
      <stop offset="0.6927" stop-color="#9DB1E5"/>
      <stop offset="1" stop-color="#C4C4C4"/>
    </linearGradient>
    <linearGradient id="paint1_linear_1351_12277" x1="779.355" y1="221.547" x2="897.956" y2="268.578" gradientUnits="userSpaceOnUse" gradientTransform="matrix(1, 0, 0, 1, 0, 1.123086)">
      <stop stop-color="#C4C4C4"/>
      <stop offset="0.1927" stop-color="#FDA3FF"/>
      <stop offset="0.4427" stop-color="#7DFF9A"/>
      <stop offset="0.6927" stop-color="#9DB1E5"/>
      <stop offset="1" stop-color="#C4C4C4"/>
    </linearGradient>
  </defs>
  <mask id="mask0_1351_12277" style="mask-type:alpha" maskUnits="userSpaceOnUse" x="0" y="0" width="1440" height="900">
    <rect width="1440" height="900" fill="#273DA4"/>
  </mask>
  <g mask="url(#mask0_1351_12277)" transform="matrix(1, 0, 0, 1, -740.187134, -246.30571)">
    <path d="M 1866.989 680.471 L 1906.559 738.022 C 1999.409 873.096 1853.339 1043.834 1705.699 972.793 L 1666.949 954.147 C 1591.039 917.622 1501.289 963.662 1486.619 1046.654 C 1461.699 1187.584 1259.269 1186.414 1235.879 1045.204 L 1229.479 1006.594 C 1216.635 929.027 1130.082 888.416 1062.317 928.159 C 954.534 991.372 839.849 857.202 918.948 760.431 L 959.995 710.214 C 1001.469 659.475 988.422 583.721 932.363 549.772 L 844.706 496.687 C 761.756 446.453 809.008 318.558 904.639 334.466 C 979.814 346.972 1034.223 264.447 993.177 200.178 L 936.947 112.134 C 874.528 14.401 990.962 -98.611 1086.659 -33.178 L 1103.162 -21.894 C 1152.22 11.649 1219.698 -10.102 1239.949 -65.985 C 1269.009 -146.189 1382.469 -145.85 1411.109 -65.475 L 1418.499 -44.727 C 1442.359 22.218 1526.849 42.935 1578.879 -5.401 L 1656.589 -77.582 C 1758.639 -172.371 1915.359 -52.896 1851.189 70.762 L 1842.049 88.378 C 1807.799 154.374 1847.699 234.655 1920.959 247.158 C 2018.539 263.81 2045.899 391.103 1963.789 446.386 L 1903.769 486.796 C 1839.809 529.856 1823.279 616.893 1866.989 680.471 Z" fill="black" fill-opacity="0.1"/>
    <path d="M1222.93 348.362L1164.09 306.904L1315.18 470.659L1379.16 517.678L1222.93 348.362Z" fill="#E0DEE9" stroke="#010101"/>
    <path d="M1229.41 342.377L1164.85 294.716L1321.07 464.031L1385.64 511.693L1229.41 342.377Z" fill="#E0DEE9" stroke="#010101"/>
    <path d="M1257.1 381.681L1220.81 349.79L1272.89 406.229L1309.18 438.12L1257.1 381.681Z" fill="#AA9A85" stroke="#010101"/>
    <path d="M1379.16 517.678L1315.45 470.943L1321.93 464.957L1385.64 511.692L1379.16 517.678Z" fill="#E0DEE9" stroke="#010101"/>
    <path d="M1374.24 510.2L1345.06 489.089L1346.76 487.514L1375.95 508.625L1374.24 510.2Z" fill="#AA9A85" stroke="#010101"/>
    <path d="M1165.01 294.896L1283.64 185.44L1440.13 355.039L1321.5 464.495L1165.01 294.896Z" fill="#E0DEE9" stroke="#010101"/>
    <path d="M1288.84 187.359L1283.64 185.44L1440.2 355.117L1445.4 357.036L1288.84 187.359Z" fill="#E0DEE9" stroke="#010101"/>
    <path d="M1325.85 467.346L1445.4 357.035L1440.13 355.038L1321.5 464.494L1325.85 467.346Z" fill="#E0DEE9" stroke="#010101"/>
    <path d="M1321.5 464.494L1165.01 294.895C1161.43 298.201 1161.21 303.785 1164.51 307.368L1315.02 470.48L1321.5 464.494Z" fill="#E0DEE9" stroke="#010101"/>
    <path d="M872.689 581.573L746.357 573.553L1101.78 666.268L1228.11 674.288L872.689 581.573Z" fill="#E0DEE9" stroke="#010101"/>
    <path d="M875.641 567.8L940.6 318.78L1296.62 411.65L1231.66 660.67L875.641 567.8Z" fill="#E0DEE9" stroke="#010101"/>
    <path d="M892.809 557.755L949.151 341.767C949.708 339.629 951.893 338.349 954.031 338.906L1275.07 422.652C1277.21 423.21 1278.49 425.395 1277.93 427.532L1221.59 643.52C1221.04 645.658 1218.85 646.939 1216.71 646.381L895.67 562.635C893.532 562.077 892.251 559.892 892.809 557.755Z" fill="#010101"/>
    <path d="M892.809 557.755L949.151 341.767C949.708 339.629 951.893 338.349 954.031 338.906L1275.07 422.652C1277.21 423.21 1278.49 425.395 1277.93 427.532L1221.59 643.52C1221.04 645.658 1218.85 646.939 1216.71 646.381L895.67 562.635C893.532 562.077 892.251 559.892 892.809 557.755Z" fill="url(#paint0_linear_1351_12277)"/>
    <path d="M949.233 316.876L940.6 318.78L1296.78 411.693L1305.42 409.789L949.233 316.876Z" fill="#E0DEE9" stroke="#010101"/>
    <path d="M1240.96 656.864L1305.41 409.79L1296.62 411.651L1231.66 660.67L1240.96 656.864Z" fill="#E0DEE9" stroke="#010101"/>
    <path d="M875.642 567.8L872.09 581.418L1228.11 674.289L1231.66 660.671L875.642 567.8Z" fill="#E0DEE9" stroke="#010101"/>
    <path d="M876.234 567.955L748.553 559.583L1103.98 652.298L1231.66 660.67L876.234 567.955Z" fill="#E0DEE9" stroke="#010101"/>
    <path d="M947.228 596.864L871.072 585.31L989.547 616.215L1065.7 627.769L947.228 596.864Z" fill="#A4A3A3" stroke="#010101"/>
    <path d="M1228.11 674.288L1102.37 666.423L1105.93 652.805L1231.66 660.67L1228.11 674.288Z" fill="#E0DEE9" stroke="#010101"/>
    <path d="M1215.08 668.484L1157.73 665.281L1158.67 661.697L1216.01 664.9L1215.08 668.484Z" fill="#AA9A85" stroke="#010101"/>
    <path d="M1231.66 660.672L1228.11 674.29C1236.87 675.745 1239.19 663.674 1240.97 656.865L1231.66 660.672Z" fill="#E0DEE9" stroke="#010101"/>
    <path d="M748.933 559.683L745.381 573.301L1101.4 666.172L1104.95 652.553L748.933 559.683Z" fill="#E0DEE9" stroke="#010101"/>
    <circle cx="1112.43" cy="372.956" r="2.51585" transform="rotate(14.6202 1112.43 372.956)" fill="#E0DEE9" stroke="#010101"/>
    <path fill-rule="evenodd" clip-rule="evenodd" d="M1069.23 388.944L1071.64 389.424C1097.35 396.087 1106.14 421.333 1098.85 446.509L1096.4 455.659C1101.16 457.616 1107.19 462.209 1102.19 472.253C1098.77 479.113 1094 480.617 1089.83 480.168L1073.84 539.829C1064.04 542.99 1053.54 543.522 1043.42 541.37C1033.3 539.219 1023.92 534.461 1016.24 527.581L1015.66 527.064C1017.41 519.9 1019.23 513.442 1019.23 513.442C1019.23 513.442 994.976 504.643 999.528 479.934C1001.72 468.001 1008.27 443.811 1014.46 421.986C1017.66 410.661 1025.08 400.972 1035.23 394.849C1045.37 388.726 1057.51 386.617 1069.23 388.944Z" fill="#FBC8AE"/>
    <path d="M1071.64 389.424L1071.76 388.94L1071.75 388.937L1071.74 388.934L1071.64 389.424ZM1069.23 388.944L1069.32 388.453L1069.32 388.453L1069.23 388.944ZM1098.85 446.509L1098.37 446.37L1098.37 446.38L1098.85 446.509ZM1096.4 455.659L1095.92 455.529L1095.81 455.954L1096.21 456.121L1096.4 455.659ZM1102.19 472.253L1102.63 472.476L1102.63 472.476L1102.19 472.253ZM1089.83 480.168L1089.89 479.671L1089.46 479.625L1089.35 480.039L1089.83 480.168ZM1073.84 539.829L1073.99 540.305L1074.25 540.221L1074.32 539.959L1073.84 539.829ZM1043.42 541.37L1043.31 541.859L1043.31 541.859L1043.42 541.37ZM1016.24 527.581L1015.9 527.954L1015.9 527.954L1016.24 527.581ZM1015.66 527.064L1015.18 526.946L1015.1 527.237L1015.33 527.437L1015.66 527.064ZM1019.23 513.442L1019.71 513.578L1019.84 513.13L1019.4 512.972L1019.23 513.442ZM999.528 479.934L1000.02 480.025L1000.02 480.025L999.528 479.934ZM1014.46 421.986L1014.94 422.122L1014.94 422.122L1014.46 421.986ZM1035.23 394.849L1034.97 394.421L1034.97 394.421L1035.23 394.849ZM1071.74 388.934L1069.32 388.453L1069.13 389.434L1071.54 389.915L1071.74 388.934ZM1099.33 446.648C1103 433.971 1102.64 421.242 1098.08 410.824C1093.52 400.393 1084.77 392.31 1071.76 388.94L1071.51 389.908C1084.22 393.201 1092.72 401.073 1097.16 411.225C1101.61 421.389 1101.99 433.872 1098.37 446.37L1099.33 446.648ZM1096.89 455.788L1099.34 446.639L1098.37 446.38L1095.92 455.529L1096.89 455.788ZM1096.21 456.121C1098.55 457.082 1101.12 458.663 1102.52 461.167C1103.9 463.635 1104.19 467.115 1101.74 472.03L1102.63 472.476C1105.19 467.347 1104.97 463.508 1103.39 460.68C1101.84 457.887 1099.02 456.192 1096.59 455.196L1096.21 456.121ZM1101.74 472.03C1100.07 475.389 1098.08 477.394 1096.05 478.513C1094.02 479.632 1091.89 479.887 1089.89 479.671L1089.78 480.665C1091.95 480.898 1094.29 480.626 1096.53 479.389C1098.78 478.153 1100.89 475.977 1102.63 472.476L1101.74 472.03ZM1074.32 539.959L1090.32 480.298L1089.35 480.039L1073.36 539.7L1074.32 539.959ZM1043.31 541.859C1053.52 544.029 1064.1 543.493 1073.99 540.305L1073.69 539.353C1063.97 542.487 1053.56 543.015 1043.52 540.881L1043.31 541.859ZM1015.9 527.954C1023.65 534.892 1033.11 539.69 1043.31 541.859L1043.52 540.881C1033.49 538.748 1024.19 534.03 1016.57 527.209L1015.9 527.954ZM1015.33 527.437L1015.9 527.954L1016.57 527.209L1015.99 526.692L1015.33 527.437ZM1019.23 513.442C1018.75 513.306 1018.75 513.306 1018.75 513.306C1018.75 513.306 1018.75 513.306 1018.75 513.306C1018.75 513.306 1018.75 513.307 1018.75 513.307C1018.75 513.308 1018.75 513.309 1018.75 513.311C1018.75 513.314 1018.75 513.319 1018.74 513.325C1018.74 513.337 1018.74 513.356 1018.73 513.381C1018.72 513.43 1018.69 513.503 1018.67 513.599C1018.61 513.79 1018.54 514.07 1018.44 514.43C1018.24 515.148 1017.96 516.18 1017.62 517.437C1016.94 519.949 1016.05 523.359 1015.18 526.946L1016.15 527.183C1017.02 523.605 1017.91 520.204 1018.58 517.696C1018.92 516.442 1019.2 515.413 1019.4 514.696C1019.5 514.338 1019.58 514.058 1019.63 513.868C1019.66 513.773 1019.68 513.7 1019.69 513.652C1019.7 513.627 1019.7 513.609 1019.71 513.596C1019.71 513.59 1019.71 513.586 1019.71 513.582C1019.71 513.581 1019.71 513.58 1019.71 513.579C1019.71 513.579 1019.71 513.578 1019.71 513.578C1019.71 513.578 1019.71 513.578 1019.71 513.578C1019.71 513.578 1019.71 513.578 1019.23 513.442ZM999.036 479.844C996.723 492.4 1001.74 500.938 1007.33 506.314C1010.11 508.997 1013.04 510.893 1015.27 512.119C1016.39 512.732 1017.33 513.179 1018 513.473C1018.33 513.62 1018.59 513.729 1018.77 513.801C1018.87 513.838 1018.94 513.865 1018.98 513.883C1019.01 513.892 1019.03 513.899 1019.04 513.904C1019.05 513.907 1019.05 513.908 1019.05 513.91C1019.06 513.91 1019.06 513.911 1019.06 513.911C1019.06 513.911 1019.06 513.912 1019.06 513.912C1019.06 513.912 1019.06 513.912 1019.23 513.442C1019.4 512.972 1019.4 512.972 1019.4 512.972C1019.4 512.972 1019.4 512.972 1019.4 512.972C1019.4 512.972 1019.4 512.971 1019.4 512.971C1019.4 512.97 1019.39 512.969 1019.39 512.967C1019.38 512.963 1019.36 512.957 1019.34 512.949C1019.3 512.932 1019.23 512.907 1019.15 512.873C1018.97 512.804 1018.72 512.7 1018.4 512.558C1017.76 512.274 1016.84 511.84 1015.75 511.243C1013.58 510.047 1010.73 508.199 1008.02 505.594C1002.62 500.393 997.781 492.177 1000.02 480.025L999.036 479.844ZM1013.98 421.849C1007.79 443.667 1001.24 467.883 999.036 479.844L1000.02 480.025C1002.21 468.12 1008.75 443.954 1014.94 422.122L1013.98 421.849ZM1034.97 394.421C1024.71 400.609 1017.22 410.402 1013.98 421.849L1014.94 422.122C1018.11 410.92 1025.44 401.335 1035.48 395.277L1034.97 394.421ZM1069.32 388.453C1057.49 386.103 1045.22 388.233 1034.97 394.421L1035.48 395.277C1045.53 389.219 1057.54 387.132 1069.13 389.434L1069.32 388.453Z" fill="black"/>
    <path d="M1071.12 446.024C1082.39 444.555 1103.54 446.744 1098.9 455.951" stroke="black"/>
    <path d="M1060.34 445.371C1060.07 446.259 1059.46 447.006 1058.64 447.454C1057.83 447.902 1056.86 448.015 1055.96 447.77C1055.51 447.668 1055.09 447.48 1054.72 447.215C1054.34 446.95 1054.03 446.613 1053.79 446.226C1053.55 445.839 1053.38 445.408 1053.31 444.959C1053.24 444.509 1053.26 444.051 1053.37 443.611C1053.64 442.722 1054.25 441.973 1055.06 441.524C1055.88 441.075 1056.85 440.962 1057.75 441.207C1058.2 441.308 1058.62 441.497 1058.99 441.763C1059.37 442.028 1059.68 442.365 1059.93 442.753C1060.17 443.141 1060.33 443.573 1060.4 444.022C1060.47 444.472 1060.45 444.93 1060.34 445.371Z" fill="#010101" stroke="black"/>
    <path d="M1027 436.917C1026.73 437.805 1026.12 438.552 1025.31 439C1024.49 439.448 1023.53 439.561 1022.62 439.316C1022.18 439.214 1021.75 439.026 1021.38 438.761C1021.01 438.496 1020.69 438.159 1020.45 437.772C1020.21 437.384 1020.05 436.954 1019.98 436.504C1019.9 436.055 1019.93 435.597 1020.04 435.157C1020.3 434.269 1020.91 433.521 1021.73 433.072C1022.54 432.623 1023.51 432.509 1024.41 432.753C1024.86 432.854 1025.28 433.042 1025.66 433.308C1026.03 433.573 1026.35 433.91 1026.59 434.298C1026.83 434.686 1026.99 435.118 1027.06 435.568C1027.13 436.018 1027.11 436.476 1027 436.917V436.917Z" fill="#010101" stroke="black"/>
    <path d="M1014.03 429.163C1014.73 430.272 1019.08 428.883 1023.43 430.092C1027.78 431.184 1030.77 434.528 1031.85 433.882C1032.33 433.563 1031.98 432.545 1030.59 431.277C1028.7 429.694 1026.32 428.486 1023.76 427.808C1021.21 427.13 1018.59 427.012 1016.24 427.468C1014.47 427.901 1013.74 428.628 1014.03 429.163Z" fill="#010101"/>
    <path d="M1066.35 442.428C1065.2 443.07 1062.04 439.777 1057.64 438.767C1053.3 437.657 1049.08 439.171 1048.43 438.087C1048.16 437.576 1048.96 436.849 1050.78 436.395C1053.2 435.908 1055.87 435.98 1058.44 436.601C1061.01 437.223 1063.37 438.366 1065.21 439.886C1066.56 441.108 1066.86 442.098 1066.35 442.428Z" fill="#010101"/>
    <path d="M1027.9 480.726C1027.65 481.724 1025.39 482.975 1023.15 482.405C1020.9 481.836 1019.52 479.662 1019.77 478.664" stroke="black"/>
    <path d="M1072.02 442.501C1058.09 436.561 1047.34 436.099 1043.7 436.611L1039.71 452.376C1051.27 458.406 1063.81 457.198 1068.64 455.84L1072.02 442.501Z" fill="white" fill-opacity="0.3" stroke="black"/>
    <path d="M1011.72 426.247C1023.52 426.83 1030.88 430.964 1033.09 432.958L1029.1 448.723C1018.83 449.219 1010.98 442.839 1008.34 439.587L1011.72 426.247Z" fill="white" fill-opacity="0.3" stroke="black"/>
    <path d="M1032.05 437.076C1034.13 435.428 1038.5 433.488 1042.89 439.826" stroke="black"/>
    <path d="M1033.56 442.268C1032.08 444.938 1029.08 450.843 1028.89 453.103C1028.66 455.927 1021.08 457.371 1024.11 462.468C1026.54 466.545 1032.87 467.734 1035.74 467.819C1034.35 465.704 1032.66 462.519 1036.98 466.693C1038.57 466.774 1041.37 466.075 1039.94 462.634" stroke="black"/>
    <path fill-rule="evenodd" clip-rule="evenodd" d="M1090.19 458.07C1087.55 469.1 1077.66 491.144 1059.22 491.082C1047.45 491.042 1038.98 491.995 1033.65 493C1034.09 490.425 1034.55 487.331 1035 483.651C1035.5 479.651 1036.09 471.947 1026.97 468.48C1026.87 468.46 1026.77 468.439 1026.67 468.419C1020.53 467.151 1011.83 465.357 1008.47 485.399C1006.45 482.357 1003.99 478.907 1001.85 476.534C997.347 471.546 982.756 508.23 1011.1 515.898C1039.44 523.566 1061.17 515.615 1069.44 511.461C1077.7 507.307 1091.58 481.019 1090.19 458.07ZM1011.89 490.509C1018.1 487.235 1024.91 491.852 1027.56 494.592C1027.61 494.572 1027.65 494.553 1027.7 494.533C1027.67 493.014 1027.7 491.421 1027.8 489.845L1029.5 483.651C1029.52 483.592 1029.53 483.529 1029.55 483.464C1030.08 481.389 1031.32 476.581 1025.48 474.352C1019.46 472.053 1017.04 476.063 1016 479.651C1015.04 482.994 1013.43 487.251 1011.89 490.509Z" fill="#8A525F"/>
    <path d="M1059.22 491.082L1059.22 491.582L1059.22 491.582L1059.22 491.082ZM1090.19 458.07L1090.69 458.039L1089.7 457.953L1090.19 458.07ZM1033.65 493L1033.15 492.915L1033.03 493.625L1033.74 493.492L1033.65 493ZM1035 483.651L1035.5 483.713L1035.5 483.713L1035 483.651ZM1026.97 468.48L1027.15 468.013L1027.11 467.998L1027.07 467.99L1026.97 468.48ZM1026.67 468.419L1026.77 467.929L1026.77 467.929L1026.67 468.419ZM1008.47 485.399L1008.06 485.676L1008.76 486.731L1008.97 485.482L1008.47 485.399ZM1001.85 476.534L1001.48 476.869L1001.48 476.869L1001.85 476.534ZM1011.1 515.898L1010.97 516.381L1011.1 515.898ZM1011.89 490.509L1011.43 490.295L1010.79 491.651L1012.12 490.952L1011.89 490.509ZM1027.56 494.592L1027.2 494.939L1027.44 495.184L1027.75 495.053L1027.56 494.592ZM1027.7 494.533L1027.89 494.998L1028.21 494.87L1028.2 494.522L1027.7 494.533ZM1027.8 489.845L1027.32 489.712L1027.31 489.762L1027.3 489.812L1027.8 489.845ZM1029.5 483.651L1029.98 483.784L1029.99 483.774L1029.5 483.651ZM1029.55 483.464L1029.06 483.339L1029.06 483.339L1029.55 483.464ZM1025.48 474.352L1025.3 474.819L1025.3 474.819L1025.48 474.352ZM1016 479.651L1016.48 479.79L1016.48 479.79L1016 479.651ZM1059.22 491.582C1068.66 491.613 1075.88 485.981 1081.03 479.033C1086.19 472.085 1089.34 463.75 1090.67 458.186L1089.7 457.953C1088.39 463.419 1085.29 471.621 1080.23 478.437C1075.17 485.254 1068.22 490.612 1059.22 490.582L1059.22 491.582ZM1033.74 493.492C1039.04 492.493 1047.48 491.542 1059.22 491.582L1059.22 490.582C1047.43 490.542 1038.92 491.497 1033.55 492.509L1033.74 493.492ZM1034.5 483.59C1034.05 487.264 1033.6 490.349 1033.15 492.915L1034.14 493.086C1034.59 490.501 1035.04 487.399 1035.5 483.713L1034.5 483.59ZM1026.79 468.947C1031.21 470.628 1033.23 473.307 1034.12 476.02C1035.01 478.766 1034.75 481.596 1034.5 483.59L1035.5 483.713C1035.75 481.707 1036.03 478.684 1035.07 475.711C1034.09 472.705 1031.85 469.799 1027.15 468.013L1026.79 468.947ZM1026.57 468.909C1026.67 468.929 1026.77 468.95 1026.87 468.97L1027.07 467.99C1026.97 467.97 1026.87 467.95 1026.77 467.929L1026.57 468.909ZM1008.97 485.482C1010.64 475.505 1013.61 471.137 1016.77 469.353C1019.95 467.561 1023.47 468.268 1026.57 468.909L1026.77 467.929C1023.73 467.302 1019.83 466.478 1016.28 468.482C1012.72 470.495 1009.67 475.251 1007.98 485.317L1008.97 485.482ZM1001.48 476.869C1003.6 479.213 1006.04 482.638 1008.06 485.676L1008.89 485.123C1006.87 482.076 1004.39 478.6 1002.22 476.199L1001.48 476.869ZM1011.23 515.415C1004.26 513.53 999.974 509.878 997.498 505.562C995.013 501.232 994.327 496.191 994.657 491.505C994.986 486.817 996.329 482.53 997.85 479.741C998.615 478.337 999.399 477.364 1000.08 476.889C1000.42 476.653 1000.69 476.568 1000.9 476.57C1001.09 476.572 1001.28 476.646 1001.48 476.869L1002.22 476.199C1001.86 475.798 1001.41 475.575 1000.91 475.57C1000.42 475.565 999.945 475.763 999.507 476.069C998.638 476.675 997.764 477.809 996.972 479.262C995.376 482.188 993.998 486.616 993.659 491.435C993.32 496.255 994.02 501.51 996.63 506.06C999.249 510.623 1003.77 514.431 1010.97 516.381L1011.23 515.415ZM1069.21 511.014C1061.02 515.131 1039.42 523.042 1011.23 515.415L1010.97 516.381C1039.47 524.09 1061.32 516.099 1069.66 511.907L1069.21 511.014ZM1089.69 458.1C1090.38 469.473 1087.28 481.702 1082.97 491.614C1080.82 496.567 1078.37 500.928 1075.95 504.302C1073.53 507.692 1071.17 510.031 1069.21 511.014L1069.66 511.907C1071.84 510.813 1074.31 508.309 1076.77 504.884C1079.23 501.444 1081.72 497.019 1083.89 492.012C1088.24 482.005 1091.39 469.616 1090.69 458.039L1089.69 458.1ZM1012.12 490.952C1015.06 489.403 1018.16 489.707 1020.88 490.762C1023.61 491.818 1025.92 493.612 1027.2 494.939L1027.92 494.244C1026.56 492.832 1024.13 490.947 1021.24 489.829C1018.35 488.709 1014.93 488.341 1011.65 490.067L1012.12 490.952ZM1027.75 495.053C1027.8 495.035 1027.84 495.017 1027.89 494.998L1027.52 494.068C1027.47 494.089 1027.42 494.11 1027.37 494.13L1027.75 495.053ZM1028.2 494.522C1028.17 493.017 1028.2 491.439 1028.3 489.877L1027.3 489.812C1027.2 491.404 1027.17 493.011 1027.2 494.544L1028.2 494.522ZM1028.28 489.977L1029.98 483.784L1029.02 483.519L1027.32 489.712L1028.28 489.977ZM1029.99 483.774C1030 483.715 1030.02 483.654 1030.03 483.588L1029.06 483.339C1029.05 483.404 1029.03 483.468 1029.02 483.528L1029.99 483.774ZM1030.03 483.588C1030.3 482.56 1030.77 480.733 1030.39 478.866C1030 476.947 1028.73 475.056 1025.66 473.885L1025.3 474.819C1028.07 475.877 1029.1 477.504 1029.41 479.065C1029.74 480.678 1029.33 482.293 1029.06 483.339L1030.03 483.588ZM1025.66 473.885C1022.52 472.687 1020.22 473.106 1018.56 474.4C1016.95 475.662 1016.05 477.686 1015.52 479.513L1016.48 479.79C1016.99 478.029 1017.82 476.254 1019.18 475.188C1020.5 474.155 1022.42 473.718 1025.3 474.819L1025.66 473.885ZM1015.52 479.513C1014.56 482.83 1012.97 487.061 1011.43 490.295L1012.34 490.723C1013.89 487.441 1015.51 483.159 1016.48 479.79L1015.52 479.513Z" fill="black"/>
    <path d="M1060.98 556.377C1067.51 559.404 1118.74 555.727 1093.26 501.93C1083.77 481.889 1075.43 523.423 1062.9 518.586C1052.1 519.399 1043.4 548.221 1060.98 556.377Z" fill="#792700" stroke="black"/>
    <path fill-rule="evenodd" clip-rule="evenodd" d="M1132.23 439.271L1134.55 439.767C1159.31 446.539 1167.48 471.046 1160.11 495.277L1157.62 504.085C1162.2 506.038 1167.96 510.554 1162.99 520.193C1159.6 526.777 1154.98 528.168 1150.95 527.681L1134.73 585.119C1125.21 588.046 1115.06 588.423 1105.31 586.213C1095.56 584.002 1086.56 579.283 1079.23 572.536L1078.68 572.029C1080.46 565.129 1082.31 558.913 1082.31 558.913C1082.31 558.913 1058.99 550.096 1063.7 526.282C1065.98 514.781 1072.62 491.492 1078.89 470.485C1082.13 459.585 1089.42 450.319 1099.3 444.535C1109.19 438.751 1120.94 436.871 1132.23 439.271Z" fill="#FFDECE"/>
    <path d="M1134.55 439.767L1134.69 439.285L1134.67 439.281L1134.66 439.278L1134.55 439.767ZM1132.23 439.271L1132.33 438.782L1132.33 438.782L1132.23 439.271ZM1160.11 495.277L1159.63 495.131L1159.63 495.141L1160.11 495.277ZM1157.62 504.085L1157.14 503.949L1157.02 504.372L1157.42 504.545L1157.62 504.085ZM1162.99 520.193L1163.44 520.422L1163.44 520.422L1162.99 520.193ZM1150.95 527.681L1151.01 527.184L1150.59 527.133L1150.47 527.545L1150.95 527.681ZM1134.73 585.119L1134.87 585.597L1135.13 585.517L1135.21 585.255L1134.73 585.119ZM1079.23 572.536L1078.89 572.904L1078.89 572.904L1079.23 572.536ZM1078.68 572.029L1078.2 571.904L1078.12 572.194L1078.34 572.397L1078.68 572.029ZM1082.31 558.913L1082.79 559.056L1082.92 558.61L1082.48 558.446L1082.31 558.913ZM1063.7 526.282L1064.19 526.379L1064.19 526.379L1063.7 526.282ZM1078.89 470.485L1079.36 470.628L1079.36 470.628L1078.89 470.485ZM1099.3 444.535L1099.55 444.967L1099.3 444.535ZM1134.66 439.278L1132.33 438.782L1132.13 439.76L1134.45 440.256L1134.66 439.278ZM1160.59 495.422C1164.3 483.218 1164.11 470.91 1159.84 460.781C1155.57 450.638 1147.21 442.711 1134.69 439.285L1134.42 440.249C1146.65 443.594 1154.76 451.307 1158.92 461.169C1163.08 471.044 1163.29 483.105 1159.63 495.131L1160.59 495.422ZM1158.1 504.221L1160.59 495.413L1159.63 495.141L1157.14 503.949L1158.1 504.221ZM1157.42 504.545C1159.67 505.503 1162.13 507.062 1163.44 509.494C1164.74 511.891 1164.98 515.251 1162.55 519.964L1163.44 520.422C1165.97 515.497 1165.81 511.779 1164.32 509.019C1162.85 506.295 1160.15 504.62 1157.82 503.625L1157.42 504.545ZM1162.55 519.964C1160.89 523.185 1158.95 525.095 1156.98 526.147C1155 527.2 1152.95 527.418 1151.01 527.184L1150.89 528.177C1152.99 528.431 1155.26 528.197 1157.45 527.03C1159.64 525.863 1161.71 523.785 1163.44 520.422L1162.55 519.964ZM1135.21 585.255L1151.44 527.817L1150.47 527.545L1134.25 584.983L1135.21 585.255ZM1105.2 586.7C1115.04 588.93 1125.28 588.549 1134.87 585.597L1134.58 584.641C1125.15 587.542 1115.09 587.916 1105.42 585.725L1105.2 586.7ZM1078.89 572.904C1086.29 579.71 1095.37 584.471 1105.2 586.7L1105.42 585.725C1095.76 583.534 1086.84 578.856 1079.57 572.168L1078.89 572.904ZM1078.34 572.397L1078.89 572.904L1079.57 572.168L1079.02 571.661L1078.34 572.397ZM1082.31 558.913C1081.83 558.771 1081.83 558.771 1081.83 558.771C1081.83 558.771 1081.83 558.771 1081.83 558.771C1081.83 558.772 1081.83 558.772 1081.83 558.772C1081.83 558.773 1081.83 558.774 1081.83 558.776C1081.82 558.779 1081.82 558.783 1081.82 558.789C1081.82 558.801 1081.81 558.819 1081.81 558.843C1081.79 558.891 1081.77 558.961 1081.74 559.053C1081.69 559.237 1081.61 559.507 1081.51 559.853C1081.31 560.544 1081.02 561.538 1080.68 562.748C1079.99 565.167 1079.09 568.449 1078.2 571.904L1079.16 572.154C1080.05 568.709 1080.96 565.434 1081.64 563.02C1081.98 561.813 1082.27 560.822 1082.47 560.132C1082.57 559.788 1082.65 559.518 1082.7 559.335C1082.73 559.244 1082.75 559.174 1082.76 559.127C1082.77 559.103 1082.78 559.086 1082.78 559.074C1082.78 559.068 1082.78 559.063 1082.78 559.06C1082.78 559.059 1082.79 559.058 1082.79 559.057C1082.79 559.057 1082.79 559.056 1082.79 559.056C1082.79 559.056 1082.79 559.056 1082.79 559.056C1082.79 559.056 1082.79 559.056 1082.31 558.913ZM1063.21 526.185C1060.81 538.293 1065.55 546.614 1070.88 551.884C1073.54 554.513 1076.35 556.385 1078.49 557.599C1079.56 558.206 1080.47 558.65 1081.11 558.943C1081.43 559.089 1081.68 559.198 1081.85 559.27C1081.94 559.307 1082.01 559.334 1082.06 559.352C1082.08 559.362 1082.1 559.369 1082.11 559.373C1082.12 559.376 1082.12 559.378 1082.12 559.379C1082.13 559.38 1082.13 559.38 1082.13 559.38C1082.13 559.381 1082.13 559.381 1082.13 559.381C1082.13 559.381 1082.13 559.381 1082.31 558.913C1082.48 558.446 1082.48 558.446 1082.48 558.446C1082.48 558.446 1082.48 558.446 1082.48 558.446C1082.48 558.446 1082.48 558.445 1082.48 558.445C1082.48 558.444 1082.47 558.443 1082.47 558.441C1082.46 558.437 1082.44 558.431 1082.42 558.423C1082.38 558.406 1082.32 558.381 1082.24 558.347C1082.07 558.279 1081.83 558.175 1081.52 558.033C1080.9 557.751 1080.03 557.32 1078.98 556.729C1076.9 555.545 1074.17 553.724 1071.59 551.173C1066.44 546.081 1061.87 538.085 1064.19 526.379L1063.21 526.185ZM1078.41 470.342C1072.15 491.343 1065.5 514.656 1063.21 526.185L1064.19 526.379C1066.47 514.906 1073.1 491.642 1079.36 470.628L1078.41 470.342ZM1099.05 444.103C1089.05 449.951 1081.68 459.319 1078.41 470.343L1079.36 470.628C1082.57 459.85 1089.78 450.687 1099.55 444.967L1099.05 444.103ZM1132.33 438.782C1120.93 436.356 1109.04 438.256 1099.05 444.103L1099.55 444.967C1109.33 439.246 1120.96 437.386 1132.13 439.76L1132.33 438.782Z" fill="black"/>
    <path d="M1119.43 492.745C1119.16 493.599 1118.56 494.314 1117.77 494.736C1116.97 495.158 1116.04 495.255 1115.17 495.006C1114.74 494.902 1114.33 494.715 1113.98 494.454C1113.62 494.193 1113.32 493.864 1113.09 493.486C1112.86 493.109 1112.71 492.69 1112.65 492.256C1112.59 491.821 1112.61 491.378 1112.72 490.954C1112.99 490.099 1113.59 489.383 1114.39 488.96C1115.18 488.537 1116.11 488.439 1116.98 488.689C1117.42 488.792 1117.82 488.98 1118.18 489.242C1118.54 489.503 1118.84 489.832 1119.07 490.21C1119.29 490.589 1119.44 491.008 1119.51 491.443C1119.57 491.878 1119.54 492.321 1119.43 492.745Z" fill="#010101"/>
    <path d="M1087.33 484.143C1087.06 484.997 1086.46 485.712 1085.67 486.134C1084.87 486.556 1083.94 486.653 1083.07 486.404C1082.64 486.3 1082.23 486.113 1081.87 485.852C1081.52 485.591 1081.22 485.262 1080.99 484.884C1080.76 484.507 1080.61 484.088 1080.55 483.654C1080.48 483.219 1080.51 482.776 1080.62 482.352C1080.89 481.498 1081.49 480.783 1082.28 480.36C1083.08 479.937 1084.01 479.839 1084.88 480.087C1085.31 480.19 1085.72 480.377 1086.08 480.639C1086.44 480.9 1086.74 481.229 1086.97 481.607C1087.19 481.986 1087.34 482.405 1087.41 482.84C1087.47 483.276 1087.44 483.719 1087.33 484.143V484.143Z" fill="#010101"/>
    <path d="M1110.93 477.307C1111.06 478.374 1116.29 477.474 1120.49 478.958C1124.71 480.362 1126.46 483.651 1127.24 482.892C1127.6 482.525 1127.21 481.46 1126.02 480.185C1124.41 478.59 1122.46 477.378 1120.3 476.64C1118.15 475.902 1115.85 475.658 1113.59 475.927C1111.86 476.203 1110.88 476.8 1110.93 477.307Z" fill="#010101"/>
    <path d="M1077.98 472.687C1078.39 473.68 1081.63 472.053 1084.65 472.871C1087.68 473.579 1089.55 476.508 1090.38 475.819C1090.75 475.483 1090.58 474.551 1089.69 473.459C1088.46 472.108 1086.86 471.147 1085.08 470.696C1083.3 470.246 1081.43 470.327 1079.71 470.929C1078.41 471.466 1077.82 472.206 1077.98 472.687Z" fill="#010101"/>
    <path d="M1095.5 527C1090 527 1088.5 521.5 1084 525C1082 523.5 1079.17 521.989 1077.5 527C1077 528.86 1078.18 534.643 1083 534.5C1084.96 534.646 1090 534 1095.5 527Z" fill="#FDA3FF"/>
    <path d="M1095.5 527C1090 527 1088.5 521.5 1084 525C1082 523.5 1079.17 521.989 1077.5 527M1095.5 527C1090 534 1084.96 534.646 1083 534.5C1078.18 534.643 1077 528.86 1077.5 527M1095.5 527C1095.5 527 1086.79 530.037 1082 529C1079.77 528.516 1077.5 527 1077.5 527" stroke="#010101"/>
    <path d="M1093.66 492.822C1088.52 504.102 1080.01 508.048 1084.59 510.467C1091.25 513.982 1092.9 511.911 1092.89 510.436" stroke="#010101"/>
    <path d="M1184.48 512.257C1184.42 457.359 1165.77 444.738 1147.59 441.883C1125.27 432.238 1111.19 436.318 1102.22 439.498C1095.04 442.041 1077.38 456.164 1099.66 449.048C1094.76 467.345 1118.05 460.97 1142.05 468.83C1166.05 476.69 1126.54 503.868 1145.46 506.572C1151.42 507.423 1153.22 503.881 1153.22 503.881C1170.73 504.485 1162.34 528.812 1151.04 525.781C1146.69 524.616 1144.29 552.878 1130.9 553.952C1121.52 559.365 1132.33 581.841 1145.56 588.838C1151.92 592.202 1184.58 609.361 1184.48 512.257Z" fill="#792700" stroke="black"/>
    <path d="M773.017 217.307L832.315 183.549L895.611 294.732L836.313 328.49L773.017 217.307Z" fill="#E0DEE9"/>
    <path d="M832.915 336.313L892.213 302.555L895.611 294.732L836.313 328.49L832.915 336.313Z" fill="#E0DEE9"/>
    <path d="M773.017 217.307L769.619 225.13L832.915 336.313L836.313 328.49L773.017 217.307Z" fill="#E0DEE9"/>
    <path d="M805.62 205.616C806.319 206.844 805.89 208.407 804.662 209.106C803.434 209.805 801.871 209.376 801.172 208.148C800.473 206.92 800.902 205.358 802.13 204.659C803.358 203.959 804.921 204.388 805.62 205.616Z" fill="#E0DEE9"/>
    <path d="M811.549 202.24C811.782 202.65 811.639 203.17 811.23 203.403C810.82 203.637 810.299 203.494 810.066 203.084C809.833 202.675 809.976 202.154 810.386 201.921C810.795 201.688 811.316 201.831 811.549 202.24Z" fill="#E0DEE9"/>
    <path d="M773.017 217.307L832.315 183.549L895.611 294.732M773.017 217.307L836.313 328.49M773.017 217.307L769.619 225.13L832.915 336.313M895.611 294.732L836.313 328.49M895.611 294.732L892.213 302.555L832.915 336.313M836.313 328.49L832.915 336.313M805.62 205.616C806.319 206.844 805.89 208.407 804.662 209.106C803.434 209.805 801.871 209.376 801.172 208.148C800.473 206.92 800.902 205.358 802.13 204.659C803.358 203.959 804.921 204.388 805.62 205.616ZM811.549 202.24C811.782 202.65 811.639 203.17 811.23 203.403C810.82 203.637 810.299 203.494 810.066 203.084C809.833 202.675 809.976 202.154 810.386 201.921C810.795 201.688 811.316 201.831 811.549 202.24Z" stroke="#010101"/>
    <path fill-rule="evenodd" clip-rule="evenodd" d="M 792.698 215.075 L 782.832 220.691 C 780.912 221.784 780.241 224.227 781.334 226.147 L 833.921 318.518 C 835.014 320.438 837.456 321.108 839.376 320.015 L 885.791 293.591 C 887.711 292.498 888.382 290.056 887.289 288.136 L 834.702 195.765 C 833.609 193.845 831.167 193.174 829.247 194.267 L 819.382 199.884 L 820.779 202.338 C 821.872 204.258 821.201 206.7 819.281 207.793 L 799.55 219.026 C 797.63 220.119 795.188 219.449 794.095 217.529 L 792.698 215.075 Z" fill="url(#paint1_linear_1351_12277)"/>
    <path d="M782.832 219.568L782.584 219.134L782.832 219.568ZM792.698 213.952L793.132 213.704L792.885 213.27L792.45 213.517L792.698 213.952ZM839.376 318.892L839.623 319.327L839.376 318.892ZM885.791 292.468L885.544 292.033L885.791 292.468ZM887.289 287.013L887.723 286.765L887.289 287.013ZM834.702 194.642L834.268 194.889L834.702 194.642ZM819.382 198.761L819.134 198.326L818.7 198.574L818.947 199.008L819.382 198.761ZM819.281 206.67L819.034 206.235L819.281 206.67ZM799.55 217.903L799.797 218.338L799.55 217.903ZM783.079 220.003L792.945 214.386L792.45 213.517L782.584 219.134L783.079 220.003ZM781.769 224.776C780.813 223.096 781.399 220.959 783.079 220.003L782.584 219.134C780.424 220.363 779.67 223.111 780.9 225.271L781.769 224.776ZM834.355 317.147L781.769 224.776L780.9 225.271L833.486 317.642L834.355 317.147ZM839.129 318.458C837.449 319.414 835.312 318.827 834.355 317.147L833.486 317.642C834.716 319.802 837.463 320.556 839.623 319.327L839.129 318.458ZM885.544 292.033L839.129 318.458L839.623 319.327L886.039 292.903L885.544 292.033ZM886.854 287.26C887.811 288.94 887.224 291.077 885.544 292.033L886.039 292.903C888.199 291.673 888.953 288.925 887.723 286.765L886.854 287.26ZM834.268 194.889L886.854 287.26L887.723 286.765L835.137 194.394L834.268 194.889ZM829.495 193.579C831.174 192.623 833.312 193.209 834.268 194.889L835.137 194.394C833.907 192.234 831.16 191.48 829 192.71L829.495 193.579ZM819.629 199.195L829.495 193.579L829 192.71L819.134 198.326L819.629 199.195ZM818.947 199.008L820.344 201.462L821.213 200.967L819.816 198.513L818.947 199.008ZM820.344 201.462C821.3 203.142 820.714 205.279 819.034 206.235L819.529 207.104C821.689 205.875 822.443 203.127 821.213 200.967L820.344 201.462ZM819.034 206.235L799.302 217.469L799.797 218.338L819.529 207.104L819.034 206.235ZM799.302 217.469C797.622 218.425 795.485 217.838 794.529 216.158L793.66 216.653C794.89 218.813 797.637 219.567 799.797 218.338L799.302 217.469ZM794.529 216.158L793.132 213.704L792.263 214.199L793.66 216.653L794.529 216.158Z" fill="#010101"/>
  </g>
</svg>