<svg width="39" height="38" viewBox="0 0 39 38" fill="none" xmlns="http://www.w3.org/2000/svg">
<path fill-rule="evenodd" clip-rule="evenodd" d="M0.666992 30C0.666992 34.4183 4.24871 38 8.66699 38H30.667C35.0853 38 38.667 34.4183 38.667 30V8C38.667 3.58172 35.0853 0 30.667 0H8.66699C4.24871 0 0.666992 3.58172 0.666992 8V30Z" fill="#15171F"/>
<path fill-rule="evenodd" clip-rule="evenodd" d="M28.214 23.243C28.167 24.266 27.996 24.822 27.853 25.192C27.662 25.682 27.435 26.032 27.068 26.399C26.699 26.767 26.35 26.995 25.86 27.185C25.489 27.329 24.934 27.5 23.91 27.547C22.803 27.597 22.471 27.608 19.667 27.608C16.863 27.608 16.531 27.597 15.424 27.547C14.401 27.5 13.845 27.329 13.475 27.185C12.985 26.995 12.635 26.767 12.267 26.399C11.9 26.032 11.672 25.682 11.482 25.192C11.338 24.822 11.167 24.266 11.12 23.243C11.069 22.136 11.059 21.804 11.059 19C11.059 16.196 11.069 15.864 11.12 14.757C11.167 13.733 11.338 13.178 11.482 12.807C11.672 12.317 11.9 11.968 12.267 11.599C12.635 11.232 12.985 11.005 13.475 10.814C13.845 10.671 14.401 10.5 15.424 10.453C16.531 10.402 16.863 10.391 19.667 10.391C22.471 10.391 22.803 10.402 23.91 10.453C24.934 10.5 25.489 10.671 25.86 10.814C26.35 11.005 26.699 11.232 27.068 11.599C27.435 11.968 27.662 12.317 27.853 12.807C27.996 13.178 28.167 13.733 28.214 14.757C28.265 15.864 28.276 16.196 28.276 19C28.276 21.804 28.265 22.136 28.214 23.243ZM30.104 14.671C30.053 13.553 29.875 12.79 29.616 12.122C29.348 11.431 28.988 10.846 28.404 10.263C27.821 9.679 27.235 9.319 26.545 9.051C25.877 8.792 25.114 8.614 23.996 8.563C22.876 8.512 22.519 8.5 19.667 8.5C16.816 8.5 16.458 8.512 15.338 8.563C14.22 8.614 13.457 8.792 12.789 9.051C12.099 9.319 11.513 9.679 10.93 10.263C10.346 10.846 9.98599 11.431 9.71899 12.122C9.45899 12.79 9.28099 13.553 9.23099 14.671C9.17899 15.791 9.16699 16.148 9.16699 19C9.16699 21.851 9.17899 22.209 9.23099 23.329C9.28099 24.447 9.45899 25.21 9.71899 25.878C9.98599 26.568 10.346 27.154 10.93 27.737C11.513 28.321 12.099 28.68 12.789 28.949C13.457 29.208 14.22 29.386 15.338 29.436C16.458 29.488 16.816 29.5 19.667 29.5C22.519 29.5 22.876 29.488 23.996 29.436C25.114 29.386 25.877 29.208 26.545 28.949C27.235 28.68 27.821 28.321 28.404 27.737C28.988 27.154 29.348 26.568 29.616 25.878C29.875 25.21 30.053 24.447 30.104 23.329C30.155 22.209 30.167 21.851 30.167 19C30.167 16.148 30.155 15.791 30.104 14.671ZM25.272 12.135C24.576 12.135 24.012 12.699 24.012 13.395C24.012 14.091 24.576 14.655 25.272 14.655C25.968 14.655 26.532 14.091 26.532 13.395C26.532 12.699 25.968 12.135 25.272 12.135ZM19.667 22.5C17.735 22.5 16.167 20.932 16.167 19C16.167 17.066 17.735 15.5 19.667 15.5C21.6 15.5 23.167 17.066 23.167 19C23.167 20.932 21.6 22.5 19.667 22.5ZM19.667 13.608C16.69 13.608 14.276 16.022 14.276 19C14.276 21.977 16.69 24.391 19.667 24.391C22.645 24.391 25.059 21.977 25.059 19C25.059 16.022 22.645 13.608 19.667 13.608Z" fill="white"/>
</svg>
