<?xml version="1.0" encoding="UTF-8"?>
<!DOCTYPE svg PUBLIC "-//W3C//DTD SVG 1.1//EN" "http://www.w3.org/Graphics/SVG/1.1/DTD/svg11.dtd">
<svg xmlns="http://www.w3.org/2000/svg" version="1.1" width="512px" height="512px" style="shape-rendering:geometricPrecision; text-rendering:geometricPrecision; image-rendering:optimizeQuality; fill-rule:evenodd; clip-rule:evenodd" xmlns:xlink="http://www.w3.org/1999/xlink">
<g><path style="opacity:0.965" fill="#FFFFFF" d="M 262.5,43.5 C 273.27,43.1218 283.77,44.4551 294,47.5C 299.692,65.7922 303.525,84.4589 305.5,103.5C 293.501,104.1 281.501,104.767 269.5,105.5C 257.475,104.967 245.475,104.134 233.5,103C 233.167,102.667 232.833,102.333 232.5,102C 235.409,83.2905 239.409,64.7905 244.5,46.5C 250.631,45.4926 256.631,44.4926 262.5,43.5 Z"/></g>
<g><path style="opacity:0.935" fill="#FFFFFF" d="M 231.5,50.5 C 233.103,50.3118 234.437,50.8118 235.5,52C 230.938,68.4756 227.272,85.1423 224.5,102C 210.75,100.351 197.083,97.8512 183.5,94.5C 183.343,93.1266 183.51,91.7932 184,90.5C 195.797,72.1889 211.631,58.8556 231.5,50.5 Z"/></g>
<g><path style="opacity:0.933" fill="#FFFFFF" d="M 303.5,50.5 C 323.749,56.9051 339.916,68.9051 352,86.5C 353.993,88.8175 355.159,91.4842 355.5,94.5C 342.051,97.5721 328.551,100.239 315,102.5C 313.956,101.377 313.29,100.044 313,98.5C 310.464,82.3583 307.297,66.3583 303.5,50.5 Z"/></g>
<g><path style="opacity:0.966" fill="#FFFFFF" d="M 177.5,101.5 C 192.716,104.81 208.049,107.476 223.5,109.5C 222.167,132.833 222.167,156.167 223.5,179.5C 208.008,181.265 192.675,183.932 177.5,187.5C 165.501,158.846 165.501,130.179 177.5,101.5 Z"/></g>
<g><path style="opacity:0.968" fill="#FFFFFF" d="M 355.5,101.5 C 357.467,101.261 359.301,101.594 361,102.5C 372.333,130.5 372.333,158.5 361,186.5C 360.275,187.059 359.442,187.392 358.5,187.5C 344.338,183.806 330.005,180.973 315.5,179C 314.892,177.769 314.559,176.436 314.5,175C 315.42,164.853 316.087,154.686 316.5,144.5C 315.813,133.145 315.313,121.812 315,110.5C 328.743,108.187 342.243,105.187 355.5,101.5 Z"/></g>
<g><path style="opacity:0.971" fill="#FFFFFF" d="M 231.5,111.5 C 256.501,112.82 281.501,112.82 306.5,111.5C 309.145,133.499 309.145,155.499 306.5,177.5C 294.169,176.87 281.836,176.204 269.5,175.5C 256.831,176.202 244.164,176.869 231.5,177.5C 230.167,155.5 230.167,133.5 231.5,111.5 Z"/></g>
<g><path style="opacity:0.98" fill="#FFFFFF" d="M 110.5,151.5 C 127.17,151.333 143.837,151.5 160.5,152C 168.096,204.87 197.763,237.87 249.5,251C 300.23,257.549 338.73,239.049 365,195.5C 372.112,181.664 376.279,166.997 377.5,151.5C 394.503,151.333 411.503,151.5 428.5,152C 433.525,153.689 437.359,156.856 440,161.5C 441.488,218.441 441.988,275.441 441.5,332.5C 326.5,332.5 211.5,332.5 96.5,332.5C 96.3333,277.166 96.5,221.832 97,166.5C 98.5733,158.765 103.073,153.765 110.5,151.5 Z M 188.5,272.5 C 252.501,272.333 316.501,272.5 380.5,273C 386.311,273.487 390.478,276.321 393,281.5C 393.667,288.833 393.667,296.167 393,303.5C 390.622,308.201 386.788,311.034 381.5,312C 317.167,312.667 252.833,312.667 188.5,312C 174.691,307.397 161.024,302.397 147.5,297C 144.833,294 144.833,291 147.5,288C 161.265,282.771 174.931,277.605 188.5,272.5 Z"/></g>
<g><path style="opacity:0.966" fill="#FFFFFF" d="M 255.5,183.5 C 272.202,183.403 288.869,184.069 305.5,185.5C 303.59,204.799 299.59,223.632 293.5,242C 285.579,243.716 277.579,244.882 269.5,245.5C 261.132,244.754 252.798,243.754 244.5,242.5C 239.409,224.211 235.409,205.711 232.5,187C 240.12,185.133 247.786,183.966 255.5,183.5 Z"/></g>
<g><path style="opacity:0.934" fill="#FFFFFF" d="M 221.5,186.5 C 222.822,186.33 223.989,186.663 225,187.5C 227.288,204.108 230.788,220.441 235.5,236.5C 235.113,237.72 234.28,238.387 233,238.5C 211.413,230.407 194.913,216.407 183.5,196.5C 183.818,195.353 184.484,194.519 185.5,194C 197.568,191.161 209.568,188.661 221.5,186.5 Z"/></g>
<g><path style="opacity:0.931" fill="#FFFFFF" d="M 313.5,186.5 C 325.586,188.126 337.586,190.292 349.5,193C 352.008,193.115 354.008,194.115 355.5,196C 343.416,216.583 326.083,230.75 303.5,238.5C 307.731,221.343 311.065,204.01 313.5,186.5 Z"/></g>
<g><path style="opacity:0.894" fill="#FFFFFF" d="M 187.5,280.5 C 191.167,280.5 194.833,280.5 198.5,280.5C 198.5,288.5 198.5,296.5 198.5,304.5C 194.818,304.665 191.152,304.499 187.5,304C 178.653,300.329 169.653,297.163 160.5,294.5C 160.33,293.178 160.663,292.011 161.5,291C 170.369,287.723 179.035,284.223 187.5,280.5 Z"/></g>
<g><path style="opacity:0.95" fill="#FFFFFF" d="M 206.5,280.5 C 254.167,280.5 301.833,280.5 349.5,280.5C 349.5,288.5 349.5,296.5 349.5,304.5C 301.833,304.5 254.167,304.5 206.5,304.5C 206.5,296.5 206.5,288.5 206.5,280.5 Z"/></g>
<g><path style="opacity:0.918" fill="#FFFFFF" d="M 357.5,280.5 C 366.582,280.086 375.582,280.586 384.5,282C 385.645,288.752 385.811,295.586 385,302.5C 384.25,303.126 383.416,303.626 382.5,304C 374.173,304.5 365.84,304.666 357.5,304.5C 357.5,296.5 357.5,288.5 357.5,280.5 Z"/></g>
<g><path style="opacity:0.959" fill="#FFFFFF" d="M 96.5,340.5 C 211.5,340.5 326.5,340.5 441.5,340.5C 441.901,348.585 441.401,356.585 440,364.5C 437.16,370.004 432.66,373.171 426.5,374C 321.833,374.667 217.167,374.667 112.5,374C 104.116,372.616 98.949,367.783 97,359.5C 96.5005,353.175 96.3338,346.842 96.5,340.5 Z"/></g>
<g><path style="opacity:0.942" fill="#FFFFFF" d="M 238.5,381.5 C 258.836,381.333 279.169,381.5 299.5,382C 304.967,396.101 311.634,409.601 319.5,422.5C 319.291,423.086 318.957,423.586 318.5,424C 285.502,424.5 252.502,424.667 219.5,424.5C 223.67,415.155 228.17,405.822 233,396.5C 234.94,391.51 236.774,386.51 238.5,381.5 Z"/></g>
<g><path style="opacity:0.963" fill="#FFFFFF" d="M 165.5,431.5 C 234.834,431.333 304.167,431.5 373.5,432C 380.474,432.977 384.974,436.81 387,443.5C 387.499,448.155 387.666,452.821 387.5,457.5C 308.833,457.5 230.167,457.5 151.5,457.5C 147.962,443.882 152.629,435.216 165.5,431.5 Z"/></g>
</svg>
