<?xml version="1.0" encoding="UTF-8"?>
<!DOCTYPE svg PUBLIC "-//W3C//DTD SVG 1.1//EN" "http://www.w3.org/Graphics/SVG/1.1/DTD/svg11.dtd">
<svg xmlns="http://www.w3.org/2000/svg" version="1.1" width="512px" height="512px" style="shape-rendering:geometricPrecision; text-rendering:geometricPrecision; image-rendering:optimizeQuality; fill-rule:evenodd; clip-rule:evenodd" xmlns:xlink="http://www.w3.org/1999/xlink">
<g><path style="opacity:0.996" fill="#fefffe" d="M 53.5,47.5 C 188.167,47.3333 322.834,47.5 457.5,48C 477.333,53.1667 489.833,65.6667 495,85.5C 495.667,177.5 495.667,269.5 495,361.5C 489.833,381.333 477.333,393.833 457.5,399C 409.834,399.5 362.168,399.667 314.5,399.5C 315.305,410.107 316.638,420.607 318.5,431C 336.833,431.333 355.167,431.667 373.5,432C 382.482,436.473 385.649,443.64 383,453.5C 381.167,458 378,461.167 373.5,463C 294.833,463.667 216.167,463.667 137.5,463C 128.518,458.527 125.351,451.36 128,441.5C 129.833,437 133,433.833 137.5,432C 155.833,431.667 174.167,431.333 192.5,431C 194.362,420.607 195.695,410.107 196.5,399.5C 148.832,399.667 101.166,399.5 53.5,399C 33.6667,393.833 21.1667,381.333 16,361.5C 15.3333,269.5 15.3333,177.5 16,85.5C 21.3488,65.6518 33.8488,52.9852 53.5,47.5 Z M 63.5,79.5 C 191.5,79.3333 319.5,79.5 447.5,80C 456.667,81.1667 461.833,86.3333 463,95.5C 463.5,164.833 463.667,234.166 463.5,303.5C 324.833,303.5 186.167,303.5 47.5,303.5C 47.3333,234.166 47.5,164.833 48,95.5C 49.3459,86.3224 54.5125,80.9891 63.5,79.5 Z M 250.5,336.5 C 267.765,336.257 273.598,344.257 268,360.5C 261.749,367.011 254.582,368.177 246.5,364C 239.989,357.749 238.823,350.582 243,342.5C 245.114,339.879 247.614,337.879 250.5,336.5 Z"/></g>
</svg>
