<?xml version="1.0" standalone="no"?>
<!DOCTYPE svg PUBLIC "-//W3C//DTD SVG 20010904//EN"
 "http://www.w3.org/TR/2001/REC-SVG-20010904/DTD/svg10.dtd">
<svg version="1.0" xmlns="http://www.w3.org/2000/svg"
 width="442.000000pt" height="202.000000pt" viewBox="0 0 442.000000 202.000000"
 preserveAspectRatio="xMidYMid meet">

<g transform="translate(0.000000,202.000000) scale(0.100000,-0.100000)"
fill="#FFFFFF" stroke="none">
<path d="M1580 1294 c0 -95 13 -120 23 -45 2 21 11 52 18 67 14 28 16 29 107
32 l92 3 0 -291 c0 -182 -4 -299 -10 -311 -8 -13 -21 -19 -45 -19 -24 0 -35
-5 -35 -15 0 -13 21 -15 130 -15 109 0 130 2 130 15 0 10 -10 15 -33 15 -18 0
-38 5 -45 12 -9 9 -12 92 -12 310 l0 298 90 0 c88 0 90 -1 104 -28 8 -15 17
-49 21 -75 12 -78 25 -53 25 48 l0 95 -280 0 -280 0 0 -96z"/>
<path d="M3570 1375 c0 -9 9 -15 23 -15 13 0 33 -10 44 -22 26 -30 203 -283
203 -292 0 -3 -52 -76 -116 -161 -91 -122 -122 -155 -145 -160 -59 -13 -26
-25 71 -25 83 0 100 3 100 15 0 9 -6 15 -12 14 -30 -4 -49 2 -54 16 -6 14 170
255 186 255 12 0 173 -231 174 -249 1 -11 -9 -17 -31 -19 -21 -2 -33 -9 -33
-18 0 -11 22 -14 120 -14 119 0 149 9 89 26 -26 7 -54 40 -150 177 -66 93
-119 170 -119 173 0 15 213 284 225 285 8 1 20 2 27 3 6 0 13 7 16 14 3 9 -22
12 -103 12 -81 0 -106 -3 -103 -12 3 -7 18 -15 34 -18 16 -3 30 -12 32 -22 4
-19 -144 -221 -158 -216 -17 6 -150 203 -147 218 1 8 15 17 31 20 16 3 31 11
34 18 3 9 -25 12 -117 12 -101 0 -121 -2 -121 -15z"/>
<path d="M182 1317 c-22 -23 -22 -28 -22 -353 l0 -331 23 -21 c23 -22 29 -22
310 -22 l287 0 0 65 0 65 -285 0 -285 0 0 280 0 280 240 0 240 0 0 30 0 30
-243 0 c-242 0 -244 0 -265 -23z"/>
<path d="M750 1310 l0 -30 185 0 185 0 0 30 0 30 -185 0 -185 0 0 -30z"/>
<path d="M1190 1310 c0 -27 3 -30 30 -30 l30 0 0 -280 0 -280 -85 0 -85 0 0
-65 0 -65 89 0 c138 0 131 -21 131 375 0 311 -1 323 -21 349 -15 19 -30 26
-55 26 -31 0 -34 -3 -34 -30z"/>
<path d="M2413 1156 c-17 -8 -43 -31 -57 -52 l-26 -39 0 48 c0 26 -2 47 -4 47
-2 0 -35 -10 -72 -22 -53 -17 -63 -23 -44 -26 14 -2 28 -9 32 -16 12 -17 9
-335 -2 -357 -6 -11 -21 -19 -35 -19 -14 0 -25 -4 -25 -10 0 -6 43 -10 110
-10 67 0 110 4 110 10 0 6 -10 10 -23 10 -42 0 -47 16 -47 150 0 142 8 182 47
222 30 31 62 36 97 13 22 -14 25 -14 40 0 20 20 20 29 3 44 -23 18 -70 22
-104 7z"/>
<path d="M2685 1155 c-77 -21 -125 -97 -78 -124 26 -14 56 5 49 32 -10 43 28
67 108 67 43 0 61 -5 82 -24 24 -20 28 -31 29 -76 l0 -53 -70 -14 c-88 -17
-187 -65 -211 -101 -25 -36 -25 -104 0 -131 48 -52 166 -48 245 10 l41 29 0
-25 c0 -50 82 -70 129 -31 11 9 9 12 -15 16 l-29 5 -5 172 c-6 200 -12 216
-96 245 -58 20 -111 21 -179 3z m195 -279 c0 -72 -1 -75 -35 -105 -41 -35 -66
-44 -120 -39 -87 7 -95 101 -13 155 37 25 129 62 156 63 8 0 12 -21 12 -74z"/>
<path d="M3210 1150 c-96 -32 -140 -105 -140 -229 0 -98 36 -163 110 -201 128
-64 275 -13 309 108 8 25 7 32 -5 32 -8 0 -14 -7 -14 -15 0 -29 -31 -76 -63
-95 -46 -29 -133 -27 -177 3 -52 35 -75 89 -75 177 0 132 60 200 175 200 71 0
115 -26 140 -83 l19 -42 0 85 c1 58 -2 80 -9 70 -5 -8 -10 -23 -10 -32 0 -23
-5 -23 -39 3 -56 41 -137 48 -221 19z"/>
<path d="M850 655 c0 -63 1 -65 25 -65 24 0 25 2 25 65 0 63 -1 65 -25 65 -24
0 -25 -2 -25 -65z"/>
<path d="M970 655 c0 -58 2 -65 20 -65 18 0 20 7 20 65 0 58 -2 65 -20 65 -18
0 -20 -7 -20 -65z"/>
<path d="M636 485 c-13 -29 -20 -35 -46 -35 -27 0 -31 -3 -28 -22 3 -23 5 -23
168 -23 158 0 165 1 165 20 0 15 -8 21 -28 23 -22 3 -32 12 -43 38 l-14 34
-80 0 -80 0 -14 -35z"/>
</g>
</svg>
