<?xml version="1.0" encoding="UTF-8"?>
<!DOCTYPE svg PUBLIC "-//W3C//DTD SVG 1.1//EN" "http://www.w3.org/Graphics/SVG/1.1/DTD/svg11.dtd">
<svg xmlns="http://www.w3.org/2000/svg" version="1.1" width="512px" height="512px" style="shape-rendering:geometricPrecision; text-rendering:geometricPrecision; image-rendering:optimizeQuality; fill-rule:evenodd; clip-rule:evenodd" xmlns:xlink="http://www.w3.org/1999/xlink">
<g><path style="opacity:0.999" fill="#FFFFFF" d="M 183.5,31.5 C 231.501,31.3333 279.501,31.5 327.5,32C 340,35.1667 347.833,43 351,55.5C 351.832,196.736 351.666,337.903 350.5,479C 286.93,479.831 223.43,479.664 160,478.5C 159.333,337.5 159.333,196.5 160,55.5C 163.349,42.9853 171.182,34.9853 183.5,31.5 Z"/></g>
<g><path style="opacity:0.998" fill="#FFFFFF" d="M 39.5,127.5 C 67.502,127.333 95.502,127.5 123.5,128C 125.333,128.5 126.5,129.667 127,131.5C 127.667,246.167 127.667,360.833 127,475.5C 126.5,477.333 125.333,478.5 123.5,479C 93.1667,479.667 62.8333,479.667 32.5,479C 24.3333,476.167 18.8333,470.667 16,462.5C 15.3333,358.833 15.3333,255.167 16,151.5C 19.349,138.985 27.1824,130.985 39.5,127.5 Z"/></g>
<g><path style="opacity:0.998" fill="#FFFFFF" d="M 387.5,191.5 C 415.502,191.333 443.502,191.5 471.5,192C 484,195.167 491.833,203 495,215.5C 495.667,297.833 495.667,380.167 495,462.5C 492.167,470.667 486.667,476.167 478.5,479C 448.167,479.667 417.833,479.667 387.5,479C 385.667,478.5 384.5,477.333 384,475.5C 383.333,382.167 383.333,288.833 384,195.5C 384.69,193.65 385.856,192.316 387.5,191.5 Z"/></g>
</svg>
