<svg width="39" height="38" viewBox="0 0 39 38" fill="none" xmlns="http://www.w3.org/2000/svg">
<path fill-rule="evenodd" clip-rule="evenodd" d="M0.666992 30C0.666992 34.4183 4.24871 38 8.66699 38H30.667C35.0853 38 38.667 34.4183 38.667 30V8C38.667 3.58172 35.0853 0 30.667 0H8.66699C4.24871 0 0.666992 3.58172 0.666992 8V30Z" fill="#15171F"/>
<g clip-path="url(#clip0_114_667)">
<path d="M29.667 12.7723C28.9334 13.0784 28.1473 13.2718 27.3089 13.3684C28.1648 12.9012 28.8111 12.16 29.1255 11.2739C28.3395 11.7089 27.4487 12.015 26.5229 12.1923C25.7718 11.4672 24.7063 11 23.5185 11C21.2478 11 19.4137 12.6917 19.4137 14.7863C19.4137 15.0924 19.4487 15.3824 19.5185 15.6563C16.1124 15.4791 13.0731 13.9807 11.0644 11.6928C10.715 12.2406 10.5054 12.9012 10.5054 13.594C10.5054 14.899 11.2216 16.0591 12.322 16.7358C11.6583 16.7197 11.012 16.5424 10.4705 16.2685V16.3169C10.4705 18.1536 11.8853 19.6842 13.7543 20.0226C13.4225 20.1031 13.0556 20.1515 12.6714 20.1515C12.4094 20.1515 12.1473 20.1353 11.9028 20.087C12.4268 21.5854 13.929 22.681 15.7456 22.7132C14.3482 23.7282 12.5666 24.3405 10.6452 24.3405C10.3133 24.3405 9.9814 24.3244 9.66699 24.276C11.4836 25.3555 13.6321 25.9839 15.9552 25.9839C23.5011 25.9839 27.6408 20.2159 27.6408 15.2052L27.6233 14.7218C28.4268 14.2062 29.1255 13.5295 29.667 12.7723Z" fill="white"/>
</g>
<defs>
<clipPath id="clip0_114_667">
<rect x="9.66699" y="11" width="20" height="15" fill="white"/>
</clipPath>
</defs>
</svg>
